<?xml version="1.0" encoding="UTF-8"?>
<svg xmlns="http://www.w3.org/2000/svg" width="456" height="456" viewBox="0 0 456 456">
  <!--
    App icon foreground (pill + check).
    Single-color shapes so MAUI can apply the MauiIcon Color tint.
  -->
  <g transform="translate(228 228) rotate(-25) translate(-228 -228)">
    <rect x="116" y="184" width="224" height="88" rx="44" fill="#FFFFFF"/>
    <path d="M228 184 h68 a44 44 0 0 1 44 44 a44 44 0 0 1-44 44 h-68z" fill="#FFFFFF" opacity="0.72"/>
    <rect x="224" y="184" width="8" height="88" fill="#FFFFFF" opacity="0.35"/>
  </g>

  <path d="M190 300 l-40-40 a10 10 0 0 1 14-14l26 26 64-64a10 10 0 1 1 14 14l-78 78a10 10 0 0 1-14 0z" fill="#FFFFFF"/>
</svg>
