<?xml version="1.0" encoding="UTF-8"?>
<svg xmlns="http://www.w3.org/2000/svg" width="512" height="512" viewBox="0 0 512 512">
  <!--
    Simple custom splash icon (pill + check).
    Original geometry is basic shapes created for this project (no third‑party artwork).
  -->
  <defs>
    <linearGradient id="pill" x1="0" y1="0" x2="1" y2="1">
      <stop offset="0" stop-color="#22C55E"/>
      <stop offset="1" stop-color="#16A34A"/>
    </linearGradient>
  </defs>

  <!-- pill capsule -->
  <g transform="translate(256 256) rotate(-25) translate(-256 -256)">
    <rect x="140" y="210" width="232" height="92" rx="46" fill="url(#pill)"/>
    <path d="M256 210 h70 a46 46 0 0 1 46 46 a46 46 0 0 1-46 46 h-70z" fill="#DCFCE7" opacity="0.92"/>
    <rect x="252" y="210" width="8" height="92" fill="#166534" opacity="0.35"/>
  </g>

  <!-- check mark -->
  <path d="M214 324 l-42-42 a10 10 0 0 1 14-14l28 28 64-64a10 10 0 1 1 14 14l-78 78a10 10 0 0 1-14 0z" fill="#166534"/>
</svg>
